<svg id="visual" viewBox="0 0 900 600" width="900" height="600" xmlns="http://www.w3.org/2000/svg" xmlns:xlink="http://www.w3.org/1999/xlink" version="1.1"><g stroke-width="0.28" stroke-linejoin="bevel"><path d="M468 314L472 352L487 317Z" fill="#dbd1b2" stroke="#001122"></path><path d="M472 352L543 365L487 317Z" fill="#fffdf0" stroke="#001122"></path><path d="M472 352L493 412L543 365Z" fill="#93692f" stroke="#001122"></path><path d="M575 331L514 250L487 317Z" fill="#93692f" stroke="#001122"></path><path d="M487 317L514 250L468 314Z" fill="#d0c29e" stroke="#001122"></path><path d="M368 296L405 399L468 314Z" fill="#b19564" stroke="#001122"></path><path d="M468 314L405 399L472 352Z" fill="#fffdf0" stroke="#001122"></path><path d="M472 352L405 399L493 412Z" fill="#dbd1b2" stroke="#001122"></path><path d="M543 365L575 331L487 317Z" fill="#93692f" stroke="#001122"></path><path d="M405 399L450 441L493 412Z" fill="#c5b38a" stroke="#001122"></path><path d="M460 200L368 296L468 314Z" fill="#93692f" stroke="#001122"></path><path d="M326 340L385 415L405 399Z" fill="#c5b38a" stroke="#001122"></path><path d="M405 399L385 415L450 441Z" fill="#b19564" stroke="#001122"></path><path d="M514 250L460 200L468 314Z" fill="#d0c29e" stroke="#001122"></path><path d="M368 296L326 340L405 399Z" fill="#f2eedb" stroke="#001122"></path><path d="M493 412L604 425L543 365Z" fill="#93692f" stroke="#001122"></path><path d="M543 365L604 425L575 331Z" fill="#bba477" stroke="#001122"></path><path d="M485 535L604 425L493 412Z" fill="#bba477" stroke="#001122"></path><path d="M668 237L608 228L685 273Z" fill="#93692f" stroke="#001122"></path><path d="M575 331L608 228L514 250Z" fill="#9d7840" stroke="#001122"></path><path d="M514 250L496 152L460 200Z" fill="#b19564" stroke="#001122"></path><path d="M460 200L348 216L368 296Z" fill="#c5b38a" stroke="#001122"></path><path d="M368 296L298 278L326 340Z" fill="#d0c29e" stroke="#001122"></path><path d="M604 425L637 409L575 331Z" fill="#f2eedb" stroke="#001122"></path><path d="M608 228L496 152L514 250Z" fill="#dbd1b2" stroke="#001122"></path><path d="M460 200L381 139L348 216Z" fill="#d0c29e" stroke="#001122"></path><path d="M348 216L298 278L368 296Z" fill="#b19564" stroke="#001122"></path><path d="M496 152L446 146L460 200Z" fill="#bba477" stroke="#001122"></path><path d="M637 409L671 361L575 331Z" fill="#fffdf0" stroke="#001122"></path><path d="M326 340L299 433L385 415Z" fill="#93692f" stroke="#001122"></path><path d="M371 523L485 535L450 441Z" fill="#c5b38a" stroke="#001122"></path><path d="M249 381L299 433L326 340Z" fill="#93692f" stroke="#001122"></path><path d="M371 523L450 441L385 415Z" fill="#a78652" stroke="#001122"></path><path d="M450 441L485 535L493 412Z" fill="#dbd1b2" stroke="#001122"></path><path d="M722 535L691 414L637 409Z" fill="#dbd1b2" stroke="#001122"></path><path d="M446 146L381 139L460 200Z" fill="#e6dfc6" stroke="#001122"></path><path d="M348 216L268 249L298 278Z" fill="#fffdf0" stroke="#001122"></path><path d="M685 273L608 228L575 331Z" fill="#bba477" stroke="#001122"></path><path d="M608 228L637 169L496 152Z" fill="#9d7840" stroke="#001122"></path><path d="M299 433L371 523L385 415Z" fill="#c5b38a" stroke="#001122"></path><path d="M671 361L685 273L575 331Z" fill="#9d7840" stroke="#001122"></path><path d="M241 194L268 249L348 216Z" fill="#fffdf0" stroke="#001122"></path><path d="M233 322L249 381L326 340Z" fill="#dbd1b2" stroke="#001122"></path><path d="M704 115L637 169L741 134Z" fill="#dbd1b2" stroke="#001122"></path><path d="M668 237L637 169L608 228Z" fill="#bba477" stroke="#001122"></path><path d="M233 322L326 340L298 278Z" fill="#e6dfc6" stroke="#001122"></path><path d="M299 433L295 538L371 523Z" fill="#93692f" stroke="#001122"></path><path d="M722 535L637 409L604 425Z" fill="#b19564" stroke="#001122"></path><path d="M637 409L691 414L671 361Z" fill="#d0c29e" stroke="#001122"></path><path d="M671 361L759 294L685 273Z" fill="#d0c29e" stroke="#001122"></path><path d="M489 600L532 558L485 535Z" fill="#f2eedb" stroke="#001122"></path><path d="M485 535L532 558L604 425Z" fill="#dbd1b2" stroke="#001122"></path><path d="M268 249L233 322L298 278Z" fill="#fffdf0" stroke="#001122"></path><path d="M446 146L373 105L381 139Z" fill="#9d7840" stroke="#001122"></path><path d="M381 139L325 118L348 216Z" fill="#bba477" stroke="#001122"></path><path d="M484 75L373 105L446 146Z" fill="#e6dfc6" stroke="#001122"></path><path d="M484 75L446 146L496 152Z" fill="#e6dfc6" stroke="#001122"></path><path d="M532 558L590 557L604 425Z" fill="#93692f" stroke="#001122"></path><path d="M531 54L484 75L496 152Z" fill="#bba477" stroke="#001122"></path><path d="M750 453L724 400L691 414Z" fill="#d0c29e" stroke="#001122"></path><path d="M691 414L724 400L671 361Z" fill="#b19564" stroke="#001122"></path><path d="M373 105L325 118L381 139Z" fill="#f2eedb" stroke="#001122"></path><path d="M268 249L142 323L233 322Z" fill="#9d7840" stroke="#001122"></path><path d="M454 600L489 600L485 535Z" fill="#9d7840" stroke="#001122"></path><path d="M532 558L616 600L590 557Z" fill="#dbd1b2" stroke="#001122"></path><path d="M410 600L454 600L485 535Z" fill="#fffdf0" stroke="#001122"></path><path d="M325 118L241 194L348 216Z" fill="#f2eedb" stroke="#001122"></path><path d="M241 483L295 538L299 433Z" fill="#9d7840" stroke="#001122"></path><path d="M371 523L410 600L485 535Z" fill="#bba477" stroke="#001122"></path><path d="M295 538L410 600L371 523Z" fill="#d0c29e" stroke="#001122"></path><path d="M249 381L241 483L299 433Z" fill="#b19564" stroke="#001122"></path><path d="M144 413L241 483L249 381Z" fill="#bba477" stroke="#001122"></path><path d="M593 63L531 54L496 152Z" fill="#f2eedb" stroke="#001122"></path><path d="M384 0L302 45L373 105Z" fill="#f2eedb" stroke="#001122"></path><path d="M373 105L302 45L325 118Z" fill="#dbd1b2" stroke="#001122"></path><path d="M724 400L759 294L671 361Z" fill="#93692f" stroke="#001122"></path><path d="M685 273L776 237L668 237Z" fill="#9d7840" stroke="#001122"></path><path d="M637 169L593 63L496 152Z" fill="#b19564" stroke="#001122"></path><path d="M701 90L593 63L637 169Z" fill="#f2eedb" stroke="#001122"></path><path d="M325 118L241 146L241 194Z" fill="#d0c29e" stroke="#001122"></path><path d="M241 194L142 323L268 249Z" fill="#93692f" stroke="#001122"></path><path d="M722 535L750 453L691 414Z" fill="#dbd1b2" stroke="#001122"></path><path d="M724 400L794 347L759 294Z" fill="#a78652" stroke="#001122"></path><path d="M489 600L616 600L532 558Z" fill="#fffdf0" stroke="#001122"></path><path d="M711 551L722 535L604 425Z" fill="#d0c29e" stroke="#001122"></path><path d="M741 134L637 169L668 237Z" fill="#93692f" stroke="#001122"></path><path d="M759 294L776 237L685 273Z" fill="#93692f" stroke="#001122"></path><path d="M813 319L776 237L759 294Z" fill="#e6dfc6" stroke="#001122"></path><path d="M750 453L794 347L724 400Z" fill="#d0c29e" stroke="#001122"></path><path d="M711 551L604 425L590 557Z" fill="#d0c29e" stroke="#001122"></path><path d="M900 319L813 319L900 414Z" fill="#d0c29e" stroke="#001122"></path><path d="M616 600L711 551L590 557Z" fill="#b19564" stroke="#001122"></path><path d="M742 78L701 90L704 115Z" fill="#dbd1b2" stroke="#001122"></path><path d="M704 115L701 90L637 169Z" fill="#c5b38a" stroke="#001122"></path><path d="M776 237L741 134L668 237Z" fill="#dbd1b2" stroke="#001122"></path><path d="M117 195L142 323L241 194Z" fill="#d0c29e" stroke="#001122"></path><path d="M233 322L142 323L249 381Z" fill="#a78652" stroke="#001122"></path><path d="M190 563L295 538L241 483Z" fill="#fffdf0" stroke="#001122"></path><path d="M215 600L273 600L295 538Z" fill="#d0c29e" stroke="#001122"></path><path d="M295 538L273 600L410 600Z" fill="#e6dfc6" stroke="#001122"></path><path d="M632 0L518 0L593 63Z" fill="#bba477" stroke="#001122"></path><path d="M593 63L518 0L531 54Z" fill="#f2eedb" stroke="#001122"></path><path d="M531 54L518 0L484 75Z" fill="#bba477" stroke="#001122"></path><path d="M325 118L302 45L241 146Z" fill="#9d7840" stroke="#001122"></path><path d="M412 0L373 105L484 75Z" fill="#bba477" stroke="#001122"></path><path d="M518 0L412 0L484 75Z" fill="#93692f" stroke="#001122"></path><path d="M811 470L794 347L750 453Z" fill="#e6dfc6" stroke="#001122"></path><path d="M794 347L813 319L759 294Z" fill="#9d7840" stroke="#001122"></path><path d="M776 237L822 220L741 134Z" fill="#c5b38a" stroke="#001122"></path><path d="M142 323L144 413L249 381Z" fill="#b19564" stroke="#001122"></path><path d="M616 600L686 600L711 551Z" fill="#e6dfc6" stroke="#001122"></path><path d="M817 558L811 470L722 535Z" fill="#b19564" stroke="#001122"></path><path d="M412 0L384 0L373 105Z" fill="#bba477" stroke="#001122"></path><path d="M142 323L123 336L144 413Z" fill="#f2eedb" stroke="#001122"></path><path d="M77 339L123 336L142 323Z" fill="#dbd1b2" stroke="#001122"></path><path d="M152 134L241 194L241 146Z" fill="#f2eedb" stroke="#001122"></path><path d="M775 600L722 535L711 551Z" fill="#fffdf0" stroke="#001122"></path><path d="M722 535L811 470L750 453Z" fill="#dbd1b2" stroke="#001122"></path><path d="M667 0L593 63L701 90Z" fill="#b19564" stroke="#001122"></path><path d="M813 319L822 220L776 237Z" fill="#d0c29e" stroke="#001122"></path><path d="M847 139L822 220L900 219Z" fill="#d0c29e" stroke="#001122"></path><path d="M113 493L190 563L241 483Z" fill="#93692f" stroke="#001122"></path><path d="M667 0L632 0L593 63Z" fill="#fffdf0" stroke="#001122"></path><path d="M742 78L704 115L741 134Z" fill="#fffdf0" stroke="#001122"></path><path d="M838 90L742 78L741 134Z" fill="#93692f" stroke="#001122"></path><path d="M190 563L215 600L295 538Z" fill="#fffdf0" stroke="#001122"></path><path d="M294 0L222 57L302 45Z" fill="#b19564" stroke="#001122"></path><path d="M302 45L222 57L241 146Z" fill="#d0c29e" stroke="#001122"></path><path d="M384 0L294 0L302 45Z" fill="#a78652" stroke="#001122"></path><path d="M153 82L152 134L241 146Z" fill="#a78652" stroke="#001122"></path><path d="M152 134L117 195L241 194Z" fill="#f2eedb" stroke="#001122"></path><path d="M728 0L667 0L701 90Z" fill="#93692f" stroke="#001122"></path><path d="M59 442L113 493L144 413Z" fill="#dbd1b2" stroke="#001122"></path><path d="M144 413L113 493L241 483Z" fill="#dbd1b2" stroke="#001122"></path><path d="M190 563L131 600L215 600Z" fill="#b19564" stroke="#001122"></path><path d="M77 339L144 413L123 336Z" fill="#d0c29e" stroke="#001122"></path><path d="M117 195L77 339L142 323Z" fill="#d0c29e" stroke="#001122"></path><path d="M686 600L775 600L711 551Z" fill="#fffdf0" stroke="#001122"></path><path d="M222 57L153 82L241 146Z" fill="#fffdf0" stroke="#001122"></path><path d="M152 134L59 178L117 195Z" fill="#b19564" stroke="#001122"></path><path d="M160 0L153 82L222 57Z" fill="#c5b38a" stroke="#001122"></path><path d="M775 600L817 558L722 535Z" fill="#dbd1b2" stroke="#001122"></path><path d="M900 319L822 220L813 319Z" fill="#fffdf0" stroke="#001122"></path><path d="M775 600L786 600L817 558Z" fill="#f2eedb" stroke="#001122"></path><path d="M742 78L728 0L701 90Z" fill="#f2eedb" stroke="#001122"></path><path d="M796 0L728 0L742 78Z" fill="#a78652" stroke="#001122"></path><path d="M294 0L221 0L222 57Z" fill="#9d7840" stroke="#001122"></path><path d="M813 319L794 347L900 414Z" fill="#93692f" stroke="#001122"></path><path d="M822 220L847 139L741 134Z" fill="#dbd1b2" stroke="#001122"></path><path d="M77 339L61 413L144 413Z" fill="#f2eedb" stroke="#001122"></path><path d="M900 414L794 347L811 470Z" fill="#93692f" stroke="#001122"></path><path d="M61 413L59 442L144 413Z" fill="#fffdf0" stroke="#001122"></path><path d="M90 564L131 600L190 563Z" fill="#dbd1b2" stroke="#001122"></path><path d="M900 473L900 414L811 470Z" fill="#a78652" stroke="#001122"></path><path d="M90 564L190 563L113 493Z" fill="#e6dfc6" stroke="#001122"></path><path d="M900 125L838 90L847 139Z" fill="#c5b38a" stroke="#001122"></path><path d="M847 139L838 90L741 134Z" fill="#9d7840" stroke="#001122"></path><path d="M900 319L900 219L822 220Z" fill="#c5b38a" stroke="#001122"></path><path d="M73 37L59 178L152 134Z" fill="#dbd1b2" stroke="#001122"></path><path d="M117 195L44 195L77 339Z" fill="#a78652" stroke="#001122"></path><path d="M77 339L0 364L61 413Z" fill="#bba477" stroke="#001122"></path><path d="M61 413L0 477L59 442Z" fill="#d0c29e" stroke="#001122"></path><path d="M73 37L152 134L153 82Z" fill="#d0c29e" stroke="#001122"></path><path d="M900 519L811 470L817 558Z" fill="#bba477" stroke="#001122"></path><path d="M900 519L900 473L811 470Z" fill="#fffdf0" stroke="#001122"></path><path d="M0 512L90 564L113 493Z" fill="#dbd1b2" stroke="#001122"></path><path d="M59 178L44 195L117 195Z" fill="#93692f" stroke="#001122"></path><path d="M221 0L160 0L222 57Z" fill="#d0c29e" stroke="#001122"></path><path d="M59 178L0 163L44 195Z" fill="#a78652" stroke="#001122"></path><path d="M0 600L99 600L90 564Z" fill="#c5b38a" stroke="#001122"></path><path d="M90 564L99 600L131 600Z" fill="#c5b38a" stroke="#001122"></path><path d="M900 51L796 0L838 90Z" fill="#e6dfc6" stroke="#001122"></path><path d="M838 90L796 0L742 78Z" fill="#bba477" stroke="#001122"></path><path d="M900 600L900 519L817 558Z" fill="#fffdf0" stroke="#001122"></path><path d="M900 219L900 125L847 139Z" fill="#bba477" stroke="#001122"></path><path d="M0 267L0 364L77 339Z" fill="#bba477" stroke="#001122"></path><path d="M59 442L0 512L113 493Z" fill="#93692f" stroke="#001122"></path><path d="M0 249L0 267L44 195Z" fill="#fffdf0" stroke="#001122"></path><path d="M44 195L0 267L77 339Z" fill="#c5b38a" stroke="#001122"></path><path d="M0 163L0 249L44 195Z" fill="#93692f" stroke="#001122"></path><path d="M160 0L114 0L153 82Z" fill="#c5b38a" stroke="#001122"></path><path d="M0 364L0 477L61 413Z" fill="#93692f" stroke="#001122"></path><path d="M114 0L73 37L153 82Z" fill="#d0c29e" stroke="#001122"></path><path d="M786 600L900 600L817 558Z" fill="#bba477" stroke="#001122"></path><path d="M0 72L0 163L59 178Z" fill="#d0c29e" stroke="#001122"></path><path d="M0 477L0 512L59 442Z" fill="#d0c29e" stroke="#001122"></path><path d="M900 125L900 51L838 90Z" fill="#f2eedb" stroke="#001122"></path><path d="M900 51L900 0L796 0Z" fill="#fffdf0" stroke="#001122"></path><path d="M73 37L0 72L59 178Z" fill="#9d7840" stroke="#001122"></path><path d="M0 0L0 72L73 37Z" fill="#e6dfc6" stroke="#001122"></path><path d="M0 512L0 600L90 564Z" fill="#dbd1b2" stroke="#001122"></path><path d="M114 0L0 0L73 37Z" fill="#93692f" stroke="#001122"></path></g></svg>