<svg id="visual" viewBox="0 0 960 540" width="960" height="540" xmlns="http://www.w3.org/2000/svg" xmlns:xlink="http://www.w3.org/1999/xlink" version="1.1"><g stroke-width="1" stroke-linejoin="bevel"><path d="M492.6 311.6L435.4 273.6L401.4 377.7Z" fill="#008674" stroke="#008674"></path><path d="M435.4 273.6L355.1 321.6L401.4 377.7Z" fill="#008674" stroke="#008674"></path><path d="M355.1 321.6L341.1 351.7L401.4 377.7Z" fill="#009473" stroke="#009473"></path><path d="M366.1 462.9L447.4 433.9L401.4 377.7Z" fill="#009473" stroke="#009473"></path><path d="M401.4 377.7L447.4 433.9L492.6 311.6Z" fill="#007872" stroke="#007872"></path><path d="M435.4 273.6L361.1 262.4L355.1 321.6Z" fill="#004f5b" stroke="#004f5b"></path><path d="M355.1 321.6L244.8 302.6L341.1 351.7Z" fill="#004f5b" stroke="#004f5b"></path><path d="M447.4 433.9L549.6 389.7L492.6 311.6Z" fill="#053543" stroke="#053543"></path><path d="M558.6 221.4L415.4 199.4L435.4 273.6Z" fill="#007872" stroke="#007872"></path><path d="M435.4 273.6L415.4 199.4L361.1 262.4Z" fill="#053543" stroke="#053543"></path><path d="M558.6 221.4L435.4 273.6L492.6 311.6Z" fill="#061c29" stroke="#061c29"></path><path d="M447.4 433.9L535.6 428.9L549.6 389.7Z" fill="#061c29" stroke="#061c29"></path><path d="M341.1 351.7L366.1 462.9L401.4 377.7Z" fill="#007872" stroke="#007872"></path><path d="M447.4 433.9L509.6 540L535.6 428.9Z" fill="#005d65" stroke="#005d65"></path><path d="M608.9 303.6L558.6 221.4L492.6 311.6Z" fill="#02424f" stroke="#02424f"></path><path d="M625.9 367.7L608.9 303.6L549.6 389.7Z" fill="#053543" stroke="#053543"></path><path d="M549.6 389.7L608.9 303.6L492.6 311.6Z" fill="#008674" stroke="#008674"></path><path d="M558.6 221.4L428.4 147.3L415.4 199.4Z" fill="#00101c" stroke="#00101c"></path><path d="M415.4 199.4L355.1 127.3L361.1 262.4Z" fill="#061c29" stroke="#061c29"></path><path d="M592.9 491.9L625.9 367.7L549.6 389.7Z" fill="#00101c" stroke="#00101c"></path><path d="M207.5 272.6L244.8 302.6L223.8 206.4Z" fill="#061c29" stroke="#061c29"></path><path d="M361.1 262.4L244.8 302.6L355.1 321.6Z" fill="#008674" stroke="#008674"></path><path d="M341.1 351.7L275.8 470.9L366.1 462.9Z" fill="#02424f" stroke="#02424f"></path><path d="M669.2 239.4L607.9 219.4L608.9 303.6Z" fill="#007872" stroke="#007872"></path><path d="M608.9 303.6L607.9 219.4L558.6 221.4Z" fill="#009473" stroke="#009473"></path><path d="M556.6 132.3L465.4 108.1L428.4 147.3Z" fill="#00101c" stroke="#00101c"></path><path d="M370.1 540L424.4 540L366.1 462.9Z" fill="#02424f" stroke="#02424f"></path><path d="M366.1 462.9L424.4 540L447.4 433.9Z" fill="#008674" stroke="#008674"></path><path d="M535.6 428.9L592.9 491.9L549.6 389.7Z" fill="#061c29" stroke="#061c29"></path><path d="M228.8 391.7L275.8 470.9L341.1 351.7Z" fill="#00101c" stroke="#00101c"></path><path d="M244.8 302.6L228.8 391.7L341.1 351.7Z" fill="#007872" stroke="#007872"></path><path d="M287.8 540L370.1 540L366.1 462.9Z" fill="#061c29" stroke="#061c29"></path><path d="M424.4 540L509.6 540L447.4 433.9Z" fill="#008674" stroke="#008674"></path><path d="M428.4 147.3L355.1 127.3L415.4 199.4Z" fill="#061c29" stroke="#061c29"></path><path d="M509.6 540L592.9 491.9L535.6 428.9Z" fill="#062836" stroke="#062836"></path><path d="M556.6 132.3L428.4 147.3L558.6 221.4Z" fill="#053543" stroke="#053543"></path><path d="M428.4 147.3L365.1 60.1L355.1 127.3Z" fill="#006b6d" stroke="#006b6d"></path><path d="M607.9 219.4L586.9 161.3L558.6 221.4Z" fill="#00101c" stroke="#00101c"></path><path d="M586.9 161.3L556.6 132.3L558.6 221.4Z" fill="#006b6d" stroke="#006b6d"></path><path d="M223.8 206.4L244.8 302.6L361.1 262.4Z" fill="#009473" stroke="#009473"></path><path d="M244.8 302.6L145.5 379.7L228.8 391.7Z" fill="#007872" stroke="#007872"></path><path d="M275.8 122.3L223.8 206.4L361.1 262.4Z" fill="#008674" stroke="#008674"></path><path d="M731.2 313.6L669.2 239.4L608.9 303.6Z" fill="#062836" stroke="#062836"></path><path d="M607.9 219.4L676.2 176.3L586.9 161.3Z" fill="#005d65" stroke="#005d65"></path><path d="M586.9 161.3L602.9 87.1L556.6 132.3Z" fill="#005d65" stroke="#005d65"></path><path d="M731.2 313.6L608.9 303.6L625.9 367.7Z" fill="#008674" stroke="#008674"></path><path d="M161.5 540L287.8 540L275.8 470.9Z" fill="#007872" stroke="#007872"></path><path d="M275.8 470.9L287.8 540L366.1 462.9Z" fill="#02424f" stroke="#02424f"></path><path d="M285.8 106.1L275.8 122.3L355.1 127.3Z" fill="#007872" stroke="#007872"></path><path d="M355.1 127.3L275.8 122.3L361.1 262.4Z" fill="#007872" stroke="#007872"></path><path d="M365.1 60.1L285.8 106.1L355.1 127.3Z" fill="#008674" stroke="#008674"></path><path d="M509.6 540L615.9 540L592.9 491.9Z" fill="#004f5b" stroke="#004f5b"></path><path d="M592.9 491.9L711.2 386.7L625.9 367.7Z" fill="#004f5b" stroke="#004f5b"></path><path d="M730.2 492.9L711.2 386.7L592.9 491.9Z" fill="#062836" stroke="#062836"></path><path d="M465.4 108.1L365.1 60.1L428.4 147.3Z" fill="#00101c" stroke="#00101c"></path><path d="M455.4 0L365.1 60.1L465.4 108.1Z" fill="#02424f" stroke="#02424f"></path><path d="M763.5 132.3L676.2 176.3L810.5 241.4Z" fill="#062836" stroke="#062836"></path><path d="M669.2 239.4L676.2 176.3L607.9 219.4Z" fill="#02424f" stroke="#02424f"></path><path d="M556.6 132.3L543.6 56.1L465.4 108.1Z" fill="#00101c" stroke="#00101c"></path><path d="M711.2 386.7L731.2 313.6L625.9 367.7Z" fill="#006b6d" stroke="#006b6d"></path><path d="M676.2 176.3L602.9 87.1L586.9 161.3Z" fill="#004f5b" stroke="#004f5b"></path><path d="M602.9 87.1L543.6 56.1L556.6 132.3Z" fill="#053543" stroke="#053543"></path><path d="M207.5 272.6L145.5 379.7L244.8 302.6Z" fill="#00101c" stroke="#00101c"></path><path d="M228.8 391.7L149.5 499.9L275.8 470.9Z" fill="#02424f" stroke="#02424f"></path><path d="M139.5 249.4L145.5 379.7L207.5 272.6Z" fill="#061c29" stroke="#061c29"></path><path d="M195.5 125.3L139.5 249.4L223.8 206.4Z" fill="#008674" stroke="#008674"></path><path d="M223.8 206.4L139.5 249.4L207.5 272.6Z" fill="#004f5b" stroke="#004f5b"></path><path d="M195.5 125.3L223.8 206.4L275.8 122.3Z" fill="#006b6d" stroke="#006b6d"></path><path d="M185.5 94.1L275.8 122.3L285.8 106.1Z" fill="#006b6d" stroke="#006b6d"></path><path d="M185.5 94.1L195.5 125.3L275.8 122.3Z" fill="#006b6d" stroke="#006b6d"></path><path d="M75.3 307.6L123.3 386.7L145.5 379.7Z" fill="#005d65" stroke="#005d65"></path><path d="M145.5 379.7L149.5 499.9L228.8 391.7Z" fill="#009473" stroke="#009473"></path><path d="M535.6 0L455.4 0L543.6 56.1Z" fill="#00101c" stroke="#00101c"></path><path d="M543.6 56.1L455.4 0L465.4 108.1Z" fill="#062836" stroke="#062836"></path><path d="M365.1 60.1L349.1 0L285.8 106.1Z" fill="#062836" stroke="#062836"></path><path d="M123.3 386.7L149.5 499.9L145.5 379.7Z" fill="#005d65" stroke="#005d65"></path><path d="M615.9 540L730.2 492.9L592.9 491.9Z" fill="#006b6d" stroke="#006b6d"></path><path d="M711.2 386.7L785.5 355.7L731.2 313.6Z" fill="#061c29" stroke="#061c29"></path><path d="M49.3 142.3L111.3 253.4L139.5 249.4Z" fill="#02424f" stroke="#02424f"></path><path d="M139.5 249.4L75.3 307.6L145.5 379.7Z" fill="#006b6d" stroke="#006b6d"></path><path d="M455.4 0L349.1 0L365.1 60.1Z" fill="#009473" stroke="#009473"></path><path d="M149.5 499.9L161.5 540L275.8 470.9Z" fill="#061c29" stroke="#061c29"></path><path d="M615.9 540L714.2 540L730.2 492.9Z" fill="#061c29" stroke="#061c29"></path><path d="M604.9 0L543.6 56.1L602.9 87.1Z" fill="#006b6d" stroke="#006b6d"></path><path d="M604.9 0L535.6 0L543.6 56.1Z" fill="#008674" stroke="#008674"></path><path d="M235.8 0L185.5 94.1L285.8 106.1Z" fill="#008674" stroke="#008674"></path><path d="M195.5 125.3L49.3 142.3L139.5 249.4Z" fill="#00101c" stroke="#00101c"></path><path d="M804.5 338.6L785.5 355.7L839.7 334.6Z" fill="#053543" stroke="#053543"></path><path d="M730.2 492.9L785.5 355.7L711.2 386.7Z" fill="#004f5b" stroke="#004f5b"></path><path d="M763.5 132.3L729.2 108.1L676.2 176.3Z" fill="#02424f" stroke="#02424f"></path><path d="M0 277.6L75.3 307.6L0 246.4Z" fill="#00101c" stroke="#00101c"></path><path d="M111.3 253.4L75.3 307.6L139.5 249.4Z" fill="#004f5b" stroke="#004f5b"></path><path d="M123.3 386.7L59.3 479.9L149.5 499.9Z" fill="#006b6d" stroke="#006b6d"></path><path d="M149.5 499.9L74.3 540L161.5 540Z" fill="#02424f" stroke="#02424f"></path><path d="M839.7 334.6L785.5 355.7L862.7 443.9Z" fill="#006b6d" stroke="#006b6d"></path><path d="M785.5 355.7L804.5 338.6L731.2 313.6Z" fill="#008674" stroke="#008674"></path><path d="M676.2 176.3L729.2 108.1L602.9 87.1Z" fill="#02424f" stroke="#02424f"></path><path d="M676.2 176.3L669.2 239.4L810.5 241.4Z" fill="#061c29" stroke="#061c29"></path><path d="M677.2 0L604.9 0L602.9 87.1Z" fill="#00101c" stroke="#00101c"></path><path d="M810.5 241.4L669.2 239.4L731.2 313.6Z" fill="#007872" stroke="#007872"></path><path d="M729.2 108.1L677.2 0L602.9 87.1Z" fill="#009473" stroke="#009473"></path><path d="M804.5 338.6L810.5 241.4L731.2 313.6Z" fill="#061c29" stroke="#061c29"></path><path d="M349.1 0L235.8 0L285.8 106.1Z" fill="#006b6d" stroke="#006b6d"></path><path d="M818.5 492.9L785.5 355.7L730.2 492.9Z" fill="#00101c" stroke="#00101c"></path><path d="M804.5 338.6L839.7 334.6L810.5 241.4Z" fill="#006b6d" stroke="#006b6d"></path><path d="M0 381.7L59.3 479.9L123.3 386.7Z" fill="#008674" stroke="#008674"></path><path d="M235.8 0L200.5 0L185.5 94.1Z" fill="#02424f" stroke="#02424f"></path><path d="M185.5 94.1L49.3 142.3L195.5 125.3Z" fill="#005d65" stroke="#005d65"></path><path d="M909.7 54.1L759.5 80.1L763.5 132.3Z" fill="#007872" stroke="#007872"></path><path d="M763.5 132.3L759.5 80.1L729.2 108.1Z" fill="#00101c" stroke="#00101c"></path><path d="M759.5 80.1L677.2 0L729.2 108.1Z" fill="#00101c" stroke="#00101c"></path><path d="M813.5 540L818.5 492.9L730.2 492.9Z" fill="#006b6d" stroke="#006b6d"></path><path d="M59.3 479.9L74.3 540L149.5 499.9Z" fill="#004f5b" stroke="#004f5b"></path><path d="M714.2 540L813.5 540L730.2 492.9Z" fill="#007872" stroke="#007872"></path><path d="M818.5 492.9L862.7 443.9L785.5 355.7Z" fill="#008674" stroke="#008674"></path><path d="M56.3 65.1L49.3 142.3L185.5 94.1Z" fill="#02424f" stroke="#02424f"></path><path d="M75.3 307.6L0 381.7L123.3 386.7Z" fill="#061c29" stroke="#061c29"></path><path d="M890.7 540L862.7 443.9L818.5 492.9Z" fill="#004f5b" stroke="#004f5b"></path><path d="M0 277.6L0 381.7L75.3 307.6Z" fill="#061c29" stroke="#061c29"></path><path d="M59.3 479.9L0 540L74.3 540Z" fill="#004f5b" stroke="#004f5b"></path><path d="M0 246.4L75.3 307.6L111.3 253.4Z" fill="#02424f" stroke="#02424f"></path><path d="M49.3 142.3L0 246.4L111.3 253.4Z" fill="#006b6d" stroke="#006b6d"></path><path d="M0 381.7L0 459.9L59.3 479.9Z" fill="#009473" stroke="#009473"></path><path d="M65.3 0L56.3 65.1L185.5 94.1Z" fill="#062836" stroke="#062836"></path><path d="M49.3 142.3L0 142.3L0 246.4Z" fill="#008674" stroke="#008674"></path><path d="M890.7 540L902.7 421.7L862.7 443.9Z" fill="#007872" stroke="#007872"></path><path d="M862.7 443.9L902.7 421.7L839.7 334.6Z" fill="#008674" stroke="#008674"></path><path d="M839.7 334.6L909.7 255.4L810.5 241.4Z" fill="#008674" stroke="#008674"></path><path d="M810.5 241.4L899.7 162.3L763.5 132.3Z" fill="#006b6d" stroke="#006b6d"></path><path d="M0 95.1L0 142.3L49.3 142.3Z" fill="#062836" stroke="#062836"></path><path d="M960 275.6L909.7 255.4L839.7 334.6Z" fill="#008674" stroke="#008674"></path><path d="M909.7 54.1L785.5 0L759.5 80.1Z" fill="#007872" stroke="#007872"></path><path d="M759.5 80.1L785.5 0L677.2 0Z" fill="#053543" stroke="#053543"></path><path d="M0 459.9L0 540L59.3 479.9Z" fill="#006b6d" stroke="#006b6d"></path><path d="M909.7 255.4L899.7 162.3L810.5 241.4Z" fill="#00101c" stroke="#00101c"></path><path d="M56.3 65.1L0 95.1L49.3 142.3Z" fill="#005d65" stroke="#005d65"></path><path d="M813.5 540L890.7 540L818.5 492.9Z" fill="#006b6d" stroke="#006b6d"></path><path d="M200.5 0L65.3 0L185.5 94.1Z" fill="#061c29" stroke="#061c29"></path><path d="M56.3 65.1L0 0L0 95.1Z" fill="#00101c" stroke="#00101c"></path><path d="M960 392.7L960 275.6L839.7 334.6Z" fill="#061c29" stroke="#061c29"></path><path d="M909.7 255.4L960 199.4L899.7 162.3Z" fill="#053543" stroke="#053543"></path><path d="M960 392.7L839.7 334.6L902.7 421.7Z" fill="#005d65" stroke="#005d65"></path><path d="M960 428.9L960 392.7L902.7 421.7Z" fill="#02424f" stroke="#02424f"></path><path d="M890.7 540L960 428.9L902.7 421.7Z" fill="#061c29" stroke="#061c29"></path><path d="M960 275.6L960 199.4L909.7 255.4Z" fill="#02424f" stroke="#02424f"></path><path d="M899.7 162.3L909.7 54.1L763.5 132.3Z" fill="#005d65" stroke="#005d65"></path><path d="M960 122.3L909.7 54.1L899.7 162.3Z" fill="#062836" stroke="#062836"></path><path d="M65.3 0L0 0L56.3 65.1Z" fill="#009473" stroke="#009473"></path><path d="M890.7 540L960 540L960 428.9Z" fill="#061c29" stroke="#061c29"></path><path d="M960 199.4L960 122.3L899.7 162.3Z" fill="#009473" stroke="#009473"></path><path d="M909.7 54.1L908.7 0L785.5 0Z" fill="#053543" stroke="#053543"></path><path d="M960 0L908.7 0L909.7 54.1Z" fill="#062836" stroke="#062836"></path><path d="M960 122.3L960 74.1L909.7 54.1Z" fill="#008674" stroke="#008674"></path><path d="M960 74.1L960 0L909.7 54.1Z" fill="#004f5b" stroke="#004f5b"></path></g></svg>